<svg version="1" xmlns="http://www.w3.org/2000/svg" width="480" height="480" viewBox="0 0 360.000000 360.000000"><path d="M13 78.5V91l60.3.2 60.3.3-62.3 94.3L9 280.1V303h109.8c112.4 0 131.4-.5 147.5-3.9 48.6-10.2 77.7-41.2 85.2-90.6 3.1-20.5 1.6-50.2-3.5-68.5-9.7-35-37.7-61.4-74.2-70-16.5-3.8-22.3-4-143-4H13v12.5zm246.5 14.3c42.8 9.2 63.6 38.2 63.8 88.7.1 17.6-1.2 27.8-5 40-10 31.6-32.6 49.5-69.4 54.9-7.3 1.1-18 1.6-33.8 1.6H192V191.3l38-25.3c20.9-13.9 38-25.5 38-25.7 0-.2-17-11.6-37.7-25.4l-37.8-25 29 .5c23.7.4 30.7.8 38 2.4zm-95.8 183.9c-.2.2-27.4.2-60.4.1l-60-.3 60.1-90.9 60.1-91 .3 90.9c.1 49.9.1 91-.1 91.2z"/></svg>